<?xml version="1.0" encoding="utf-8"?>
<!-- Generator: Adobe Illustrator 27.5.0, SVG Export Plug-In . SVG Version: 6.00 Build 0)  -->
<svg version="1.1" xmlns="http://www.w3.org/2000/svg" xmlns:xlink="http://www.w3.org/1999/xlink" x="0px" y="0px"
	 viewBox="0 0 500 500" style="enable-background:new 0 0 500 500;" xml:space="preserve">
<g id="BACKGROUND">
	<g id="XMLID_1_">
		<defs>
			<rect id="XMLID_7212_" width="500" height="500"/>
		</defs>
		<clipPath id="XMLID_00000158024092104111742300000001014732048710488989_">
			<use xlink:href="#XMLID_7212_"  style="overflow:visible;"/>
		</clipPath>
		<path id="XMLID_1432_" style="clip-path:url(#XMLID_00000158024092104111742300000001014732048710488989_);fill:#B8EAE0;" d="
			M306.838,416.52c46.581-4.675,94.089-13.234,133.912-37.262c39.823-24.027,70.767-66.416,69.041-112.057
			c-0.691-18.278-6.442-36.015-13.236-53.063c-6.689-16.782-15.05-33.914-29.969-44.519c-10.991-7.813-24.483-11.311-36.993-16.515
			c-48.973-20.374-81.766-66.256-127.387-93.027c-28.207-16.552-61.115-25.392-94.033-25.259
			c-13.793,0.056-27.813,1.717-40.411,7.195c-11.016,4.79-20.594,12.361-28.712,21.061
			c-44.436,47.624-44.344,124.786-92.199,169.145c-13.485,12.499-30.483,22.029-39.88,37.688
			c-6.781,11.3-14.691,27.041-15.22,40.124c-1.875,46.357,24.36,94.901,67.66,114.104c28.755,12.753,63.911,23.617,120.427,3.538
			L306.838,416.52z"/>
		
			<rect id="XMLID_1470_" x="300.805" y="59.197" style="clip-path:url(#XMLID_00000158024092104111742300000001014732048710488989_);fill:none;stroke:#FFFFFF;stroke-width:2.7629;stroke-miterlimit:10;" width="161.375" height="157.349"/>
		<g id="XMLID_2_" style="clip-path:url(#XMLID_00000158024092104111742300000001014732048710488989_);">
			
				<line id="XMLID_1500_" style="fill:none;stroke:#FFFFFF;stroke-width:2.724;stroke-miterlimit:10;" x1="381.493" y1="216.546" x2="381.493" y2="45.15"/>
			
				<line id="XMLID_1501_" style="fill:none;stroke:#FFFFFF;stroke-width:2.724;stroke-miterlimit:10;" x1="462.18" y1="130.848" x2="300.805" y2="130.848"/>
		</g>
		<g id="XMLID_3_" style="clip-path:url(#XMLID_00000158024092104111742300000001014732048710488989_);">
			<g id="XMLID_1577_">
				<path id="XMLID_1579_" style="fill:#FFFFFF;" d="M434.2,244.336h-9.96c-1.5,0-2.717-1.216-2.717-2.717V225.7
					c0-0.752,0.61-1.362,1.362-1.362h13.143c0.491,0,0.889,0.398,0.889,0.889v16.392C436.917,243.119,435.701,244.336,434.2,244.336
					z"/>
				<path id="XMLID_1578_" style="fill:none;stroke:#FFFFFF;stroke-width:0.9572;stroke-miterlimit:10;" d="M440.771,234.189
					c0,3-1.547,5.431-3.456,5.431c-1.909,0-3.456-2.432-3.456-5.431c0-2.999,1.547-5.431,3.456-5.431
					C439.223,228.758,440.771,231.189,440.771,234.189z"/>
			</g>
			<path id="XMLID_1663_" style="fill:#69C9BA;" d="M356.561,237.826h55.436c0,0-0.295,6.088-25.53,6.473
				C360.208,244.698,356.561,237.826,356.561,237.826z"/>
			<polyline id="XMLID_1499_" style="fill:none;stroke:#FFFFFF;stroke-width:2.7629;stroke-miterlimit:10;" points="
				300.805,341.792 300.805,244.549 462.18,244.549 462.18,341.792 			"/>
		</g>
		
			<polygon id="XMLID_1505_" style="clip-path:url(#XMLID_00000158024092104111742300000001014732048710488989_);fill:none;stroke:#FFFFFF;stroke-width:1.716;stroke-miterlimit:10;" points="
			202.798,32.004 202.798,350.677 44.324,350.677 44.324,31.839 		"/>
		<g id="XMLID_1762_" style="clip-path:url(#XMLID_00000158024092104111742300000001014732048710488989_);">
			<path id="XMLID_1678_" style="fill:#FFDC75;" d="M256.16,103.124c0,5.018-4.068,9.085-9.086,9.085
				c-5.018,0-9.085-4.068-9.085-9.085c0-5.018,4.068-9.085,9.085-9.085C252.092,94.039,256.16,98.107,256.16,103.124z"/>
			
				<line id="XMLID_1677_" style="fill:none;stroke:#69C9BA;stroke-width:2.8715;stroke-linecap:round;stroke-linejoin:round;stroke-miterlimit:10;" x1="247.075" y1="40.322" x2="247.075" y2="84.244"/>
			<path id="XMLID_1676_" style="fill:#69C9BA;" d="M216.824,105.402c0-16.707,13.544-30.251,30.251-30.251
				c18.292,0,30.251,13.544,30.251,30.251H216.824z"/>
		</g>
		<g id="XMLID_1628_" style="clip-path:url(#XMLID_00000158024092104111742300000001014732048710488989_);">
			<path id="XMLID_1639_" style="fill:#6AA253;" d="M69.564,280.182c-3.598,4.756,2.361,11.458,1.118,17.291
				c-3.581,0.325-7.574,0.862-9.811,3.677c-3.063,3.854-1.087,9.5,1.131,13.896c4.663,9.242,9.941,18.174,15.788,26.717
				c1.188-5.954,7.228-9.376,12.314-12.691c5.086-3.316,10.295-8.806,8.55-14.621c-0.552-1.839-1.788-3.539-1.694-5.457
				c0.224-4.576,7.341-6.066,8.117-10.581c0.95-5.527-8.054-8.063-8.732-13.63c-0.417-3.416,2.517-6.297,3.284-9.652
				c1.143-4.996-3.433-10.224-8.555-10.385c-5.122-0.16-9.791,4.103-10.803,9.126c-0.179,0.888-1.233,1.454-1.998,1.94
				c-1.455,0.924-3.294,0.939-4.923,1.502c-1.554,0.537-2.923,1.595-3.833,2.964"/>
			<g id="XMLID_1636_">
				<path id="XMLID_22_" style="fill:#FFFFFF;" d="M78.671,335.105c0,0-0.062-1.024-0.169-2.815
					c-0.072-0.891-0.073-1.994-0.113-3.252c-0.055-1.26-0.039-2.677-0.014-4.221c-0.02-1.546,0.084-3.217,0.146-4.986
					c0.023-0.886,0.121-1.79,0.176-2.717c0.067-0.927,0.097-1.878,0.201-2.838c0.174-1.923,0.358-3.912,0.626-5.923
					c0.205-2.021,0.54-4.055,0.823-6.1c0.353-2.032,0.683-4.071,1.108-6.059c0.372-2,0.855-3.941,1.327-5.82
					c0.486-1.874,0.981-3.681,1.479-5.385c0.554-1.688,1.027-3.299,1.598-4.744c0.524-1.459,1.054-2.778,1.557-3.935
					c0.51-1.153,0.938-2.163,1.368-2.964c0.806-1.623,1.307-2.527,1.307-2.527c0.135-0.244,0.443-0.332,0.687-0.197
					c0.208,0.116,0.303,0.357,0.242,0.577l-0.004,0.016c0,0-0.276,0.994-0.829,2.693c-0.534,1.703-1.296,4.135-2.211,7.054
					c-0.447,1.46-0.93,3.041-1.442,4.714c-0.517,1.671-1.034,3.443-1.544,5.282c-0.482,1.848-0.98,3.758-1.486,5.699
					c-0.52,1.94-0.924,3.938-1.393,5.924c-0.395,2-0.842,3.995-1.16,5.979c-0.352,1.98-0.609,3.941-0.86,5.839
					c-0.239,1.899-0.419,3.743-0.542,5.494c-0.094,1.752-0.229,3.408-0.237,4.94c-0.032,1.532-0.047,2.936,0.004,4.174
					c0.029,1.241,0.048,2.319,0.139,3.216c0.14,1.789,0.219,2.812,0.219,2.812c0.022,0.277-0.185,0.519-0.462,0.541
					c-0.277,0.022-0.519-0.185-0.541-0.462C78.672,335.112,78.671,335.107,78.671,335.105z"/>
			</g>
			<path id="XMLID_1635_" style="fill:#4BA598;" d="M104.171,328.074v42.044c0,4.727-3.832,8.558-8.558,8.558H63.494
				c-5.127,0-9.284-4.157-9.284-9.284v-41.319H104.171z"/>
		</g>
	</g>
</g>
<g id="OBJECTS">
	<g id="XMLID_4_">
		<path id="XMLID_63_" style="fill:#69C9BA;" d="M262.491,190.477c11.766,3.813,21.887,11.21,31.153,19.136
			c35.022,29.957,61.04,69.474,74.179,112.665c9.031,29.689,11.114,64.425-8.529,88.959c-10.44,13.039-26.015,21.675-42.409,26.501
			c-16.393,4.825-33.682,6.109-50.824,6.595c-27.336,0.775-54.732-0.406-81.885-3.53c-11.227-1.292-22.787-3.043-32.341-8.841
			c-8.441-5.122-14.674-13.069-19.189-21.61c-12.013-22.726-12.579-49.8-6.561-74.615c6.018-24.815,18.154-47.831,30.772-70.253
			c11.537-20.501,23.944-41.189,42.418-56.325c18.473-15.136,44.379-23.911,67.55-16.883"/>
		<path id="XMLID_60_" style="fill:#4BA598;" d="M260.201,213.909c8.989,3.108,16.722,9.137,23.802,15.598
			c26.757,24.417,46.636,56.627,56.674,91.831c6.9,24.199,8.491,52.512-6.516,72.509c-7.976,10.628-19.876,17.667-32.4,21.6
			c-12.525,3.933-25.734,4.979-38.83,5.376c-20.885,0.632-41.816-0.331-62.562-2.877c-8.578-1.053-17.41-2.481-24.709-7.206
			c-6.449-4.175-11.212-10.652-14.661-17.614c-9.178-18.523-9.61-40.592-5.012-60.818c4.598-20.226,13.87-38.986,23.51-57.262
			c8.815-16.71,18.294-33.573,32.408-45.91c14.114-12.337,33.906-19.49,51.609-13.761"/>
		<g id="XMLID_5_">
			<rect id="XMLID_59_" x="220.625" y="394.333" style="fill:#193046;" width="53.922" height="23.448"/>
			<path id="XMLID_54_" style="fill:#F7C5B4;" d="M192.811,316.446c-5.03,5.075-9.424,13.379-12.488,19.835
				c-0.653,1.377-1.264,2.802-1.453,4.315c-0.447,3.579,1.597,9.579,7.531,10.625v22.085c-8.228-2.638-15.707-6.828-22.154-12.581
				c-6.447-5.753-10.967-14.197-10.24-22.808c0.419-4.968,2.506-9.628,4.714-14.098c4.12-8.342,8.824-16.498,15.121-23.347
				l11.703,9.939L192.811,316.446z"/>
			<path id="XMLID_53_" style="fill:#BEC6C3;" d="M305.469,405.929h-115.1c-2.182,0-3.968-1.786-3.968-3.968v-72.898
				c0-2.182,1.785-3.968,3.968-3.968h115.1c2.182,0,3.968,1.785,3.968,3.968v72.898
				C309.436,404.143,307.651,405.929,305.469,405.929z"/>
			<g id="XMLID_50_">
				<path id="XMLID_52_" style="fill:#1F3A54;" d="M217.058,443.155c19.723-19.272,52.025-41.167,75.093-56.275
					c7.117-4.662,14.288-9.352,22.151-12.601c7.194-2.973,14.082-7.539,21.823-6.725c9.717,1.021,16.087,12.005,14.866,21.699
					c-1.22,9.694-8.081,17.797-15.826,23.752c-9.736,7.485-21.142,12.47-32.637,16.792c-21.699,8.159-56.822,18.104-79.681,21.96
					L217.058,443.155z"/>
				<path id="XMLID_51_" style="fill:#222221;" d="M222.561,451.331c-10.561,4.322-24.667,5.505-35.902,3.504
					c-2.188-0.39-4.433-0.936-6.178-2.311c-1.746-1.375-2.855-3.785-2.096-5.874c0.944-2.598,4.104-3.526,6.848-3.86
					c10.716-1.306,21.974-0.846,32.531,1.413L222.561,451.331z"/>
			</g>
			<g id="XMLID_47_">
				<path id="XMLID_49_" style="fill:#1F3A54;" d="M279.29,440.38c-20.018-18.966-52.654-40.359-75.952-55.11
					c-7.189-4.551-14.43-9.13-22.343-12.258c-7.239-2.862-14.197-7.321-21.924-6.388c-9.7,1.171-15.9,12.252-14.53,21.926
					c1.37,9.674,8.354,17.67,16.191,23.505c9.85,7.334,21.332,12.143,32.893,16.287c21.822,7.823,57.094,17.225,80.01,20.728
					L279.29,440.38z"/>
				<path id="XMLID_48_" style="fill:#222221;" d="M273.913,448.64c10.626,4.159,24.749,5.124,35.952,2.95
					c2.181-0.423,4.418-1.005,6.142-2.406c1.724-1.401,2.796-3.829,2.005-5.905c-0.984-2.582-4.158-3.462-6.906-3.754
					c-10.735-1.141-21.985-0.507-32.505,1.915L273.913,448.64z"/>
			</g>
			<path id="XMLID_46_" style="fill:#6AA253;" d="M293.533,325.096l3.984-10.518c1.151,0.889,3.481,2.323,4.353,3.487
				c7.439-7.54,17.906-14.881,25.345-22.421c-40.935-58.396-109.03-41.168-125.507-30.73c-12.907,8.176-24.428,18.739-33.085,30.73
				c7.439,7.54,17.906,14.881,25.345,22.421c0.872-1.164,3.201-2.599,4.353-3.487l3.985,10.518"/>
			<path id="XMLID_45_" style="fill:#F7C5B4;" d="M259.203,232.856c0.54,4.314,1.081,8.627,1.621,12.941
				c0.198,1.583,0.428,4.282,1.172,5.693c1.19,2.259,11.903,5.481,13.837,6.561c0,0-8.582,7.202-28.499,7.991
				c-19.917,0.789-26.708-8.484-26.708-8.484c1.934-1.08,11.909-4.591,13.099-6.85c0.744-1.411,0.973-4.11,1.172-5.693
				c0.541-4.314,1.081-8.628,1.621-12.941"/>
			<path id="XMLID_44_" style="fill:#F7C5B4;" d="M270.137,188.703c1.686,9.129-0.713,27.5-2.672,34.76
				c-0.796,2.951-1.652,6.001-3.552,8.395c-9.389,11.826-21.904,8.088-26.018,5.384c-3.228-2.122-5.798-5.035-7.286-8.6
				c-3.798-9.097-5.356-19.119-4.499-28.939c0,0-1.092-25.627,25.119-25.627C251.228,174.076,267.322,173.458,270.137,188.703z"/>
			<path id="XMLID_43_" style="fill:#F7C5B4;" d="M226.59,211.783c-0.563,0.815-1.868,0.791-2.643,0.174
				c-0.775-0.616-1.121-1.624-1.311-2.596c-0.185-0.951-0.258-1.924-0.215-2.892c0.03-0.694,0.138-1.43,0.59-1.957
				c0.451-0.525,1.223-0.75,1.885-0.548c0.662,0.202,1.178,0.819,1.259,1.506L226.59,211.783z"/>
			<path id="XMLID_42_" style="fill:#F7C5B4;" d="M270.135,204.366c0.215-0.658,0.596-1.304,1.259-1.506
				c0.662-0.202,1.434,0.023,1.885,0.548c0.452,0.527,0.56,1.263,0.591,1.957c0.043,0.968-0.03,1.941-0.215,2.892
				c-0.189,0.972-0.535,1.98-1.311,2.596c-0.775,0.616-2.08,0.64-2.643-0.175C269.7,210.678,269.128,207.445,270.135,204.366z"/>
			<path id="XMLID_41_" style="fill:#3C3C3B;" d="M233.803,184.381c1.029,3.411,0.829,7.13-0.258,10.522
				c-1.087,3.393-3.031,6.471-5.389,9.141c-0.653,0.739-1.662,1.51-2.524,1.03c-0.426-0.237-0.65-0.716-0.829-1.17
				c-2.157-5.492-1.505-12.005,1.698-16.96c-0.036-4.137,1.137-8.643,3.965-11.663c2.828-3.02,6.842-4.898,10.972-5.134
				c1.535-0.087,3.099,0.04,4.594-0.322c1.556-0.377,2.932-1.258,4.347-2.007c2.234-1.182,4.654-2.061,7.166-2.344
				c3.676-0.414,7.498,0.507,10.546,2.603c3.048,2.096,5.286,5.358,6.082,8.97c0.451,2.048,0.45,4.174,0.232,6.26
				c-0.225,2.156-0.696,4.335-1.818,6.19c-1.389,2.298-3.728,3.955-6.301,4.721c-2.942,0.875-6.207,0.609-8.969-0.73
				c-1.94-0.941-3.668-2.398-5.775-2.856c-1.201-0.261-2.446-0.177-3.676-0.19c-4.028-0.046-8.039-1.187-11.488-3.269
				c-1.083-0.654-2.187-1.506-2.48-2.737"/>
			<path id="XMLID_40_" style="fill:#F7C5B4;" d="M259.566,236.146c0,0-3.463,3.327-10.787,3.921
				c-7.324,0.595-12.026-3.605-12.78-4.309c0,0,1.507,8.075,12.068,8.151C258.255,243.984,259.566,236.146,259.566,236.146z"/>
			<g id="XMLID_37_">
				<path id="XMLID_39_" style="fill:#3C3C3B;" d="M231.207,205.722c0,0,0.692-0.255,1.807-0.489
					c1.103-0.243,2.611-0.394,4.121-0.352c1.509,0.061,3.005,0.315,4.088,0.637c1.088,0.308,1.774,0.618,1.774,0.618
					c0.131,0.059,0.19,0.213,0.132,0.344c-0.052,0.118-0.182,0.177-0.303,0.146c0,0-0.177-0.046-0.486-0.125
					c-0.307-0.086-0.752-0.186-1.284-0.3c-1.065-0.226-2.503-0.442-3.951-0.49c-1.447-0.065-2.898,0.037-3.979,0.181
					c-0.544,0.072-0.981,0.137-1.303,0.201c-0.319,0.058-0.501,0.09-0.501,0.09c-0.13,0.023-0.253-0.063-0.277-0.192
					c-0.021-0.116,0.045-0.227,0.152-0.266L231.207,205.722z"/>
			</g>
			<path id="XMLID_36_" style="fill:#3C3C3B;" d="M239.165,207.534c0,1.152-0.934,2.086-2.086,2.086
				c-1.152,0-2.086-0.934-2.086-2.086c0-1.152,0.934-2.086,2.086-2.086C238.231,205.448,239.165,206.382,239.165,207.534z"/>
			<g id="XMLID_31_">
				<path id="XMLID_35_" style="fill:#3C3C3B;" d="M264.504,205.941c0,0-0.183-0.026-0.504-0.072
					c-0.324-0.053-0.763-0.102-1.31-0.154c-1.085-0.106-2.54-0.156-3.984-0.039c-1.446,0.101-2.875,0.368-3.932,0.632
					c-0.528,0.133-0.969,0.249-1.273,0.346c-0.307,0.091-0.482,0.143-0.482,0.143c-0.138,0.041-0.283-0.038-0.324-0.176
					c-0.036-0.123,0.024-0.253,0.135-0.308c0,0,0.675-0.335,1.751-0.682c1.072-0.36,2.558-0.668,4.064-0.783
					c1.508-0.096,3.021,0.001,4.132,0.204c1.123,0.194,1.824,0.424,1.824,0.424l0.01,0.003c0.125,0.041,0.193,0.176,0.152,0.301
					C264.728,205.891,264.617,205.957,264.504,205.941z"/>
			</g>
			<path id="XMLID_30_" style="fill:#3C3C3B;" d="M256.664,207.501c0,1.152,0.934,2.086,2.086,2.086s2.086-0.934,2.086-2.086
				s-0.934-2.086-2.086-2.086S256.664,206.349,256.664,207.501z"/>
			<path id="XMLID_29_" style="fill:#3C3C3B;" d="M244.341,203.285c0.38-1.309,0.239-2.772-0.453-3.947
				c-0.206,0.42-0.817,0.572-1.196,0.298c-0.159-0.115-0.28-0.289-0.466-0.352c-0.15-0.05-0.313-0.017-0.47,0
				c-0.693,0.074-1.373-0.179-2.049-0.349c-2.958-0.742-6.282,0.215-8.393,2.416c0.731,0.555,1.757,0.325,2.671,0.243
				c3.563-0.317,6.373,2.107,9.944,1.893C243.929,203.487,244.287,203.47,244.341,203.285z"/>
			<path id="XMLID_28_" style="fill:#3C3C3B;" d="M252.284,203.132c-0.349-1.318-0.173-2.777,0.546-3.935
				c0.196,0.424,0.803,0.591,1.189,0.327c0.162-0.111,0.287-0.283,0.474-0.34c0.151-0.047,0.313-0.01,0.47,0.011
				c0.691,0.091,1.377-0.146,2.057-0.3c2.975-0.671,6.275,0.364,8.333,2.614c-0.744,0.538-1.764,0.283-2.677,0.18
				c-3.555-0.402-6.421,1.954-9.986,1.656C252.69,203.344,252.333,203.318,252.284,203.132z"/>
			<g id="XMLID_25_">
				<path id="XMLID_27_" style="fill:#DA806C;" d="M248.766,224.226c0,0-0.118,0.045-0.35,0.111
					c-0.237,0.066-0.567,0.151-0.981,0.183c-0.821,0.078-1.958-0.064-2.959-0.578c-0.489-0.253-0.952-0.597-1.323-0.955
					c-0.379-0.359-0.661-0.759-0.88-1.11c-0.217-0.353-0.341-0.678-0.423-0.903c-0.081-0.226-0.117-0.358-0.117-0.358l-0.002-0.009
					c-0.031-0.113,0.036-0.229,0.149-0.26c0.105-0.029,0.215,0.028,0.253,0.128c0,0,0.184,0.478,0.622,1.088
					c0.214,0.307,0.507,0.632,0.845,0.949c0.345,0.319,0.741,0.596,1.186,0.826c0.871,0.47,1.879,0.634,2.626,0.636
					c0.373-0.003,0.694-0.026,0.905-0.061c0.217-0.032,0.351-0.063,0.351-0.063c0.104-0.024,0.208,0.04,0.233,0.145
					c0.022,0.096-0.031,0.192-0.12,0.225L248.766,224.226z"/>
			</g>
			<path id="XMLID_24_" style="fill:#3C3C3B;" d="M267.925,191.399c-0.576,4.031,0.166,8.239,2.087,11.829
				c0.225,0.421,0.529,0.878,1.001,0.946c0.402,0.057,0.796-0.208,1.012-0.552c0.216-0.344,0.293-0.755,0.365-1.155
				c0.742-4.125,1.455-8.538-0.225-12.378c-0.124-0.283-0.267-0.57-0.504-0.769c-0.273-0.229-0.643-0.315-1-0.322
				c-1.473-0.03-2.824,1.339-2.774,2.812"/>
			<g id="XMLID_7_">
				<path id="XMLID_23_" style="fill:#DA806C;" d="M246.835,207.598c0,0-0.108,0.778-0.271,1.945
					c-0.145,1.164-0.308,2.718-0.353,4.277c-0.033,0.779-0.05,1.558-0.035,2.29c0.008,0.382,0.01,0.651,0.107,0.864
					c0.073,0.172,0.259,0.36,0.457,0.471c0.401,0.229,0.866,0.281,1.191,0.299c0.338,0.016,0.531,0.025,0.531,0.025
					c0.176,0.008,0.312,0.158,0.303,0.334c-0.007,0.154-0.122,0.277-0.269,0.3l-0.009,0.001c0,0-0.194,0.03-0.556,0.054
					c-0.355,0.006-0.926,0.067-1.594-0.252c-0.323-0.164-0.66-0.402-0.896-0.842c-0.216-0.402-0.235-0.874-0.243-1.228
					c-0.027-0.752-0.036-1.556-0.004-2.359c0.078-1.605,0.3-3.199,0.562-4.373c0.254-1.178,0.509-1.934,0.509-1.934l0.002-0.007
					c0.052-0.153,0.217-0.235,0.37-0.183C246.774,207.327,246.854,207.462,246.835,207.598z"/>
			</g>
			<path id="XMLID_6_" style="fill:#F7C5B4;" d="M305.462,314.63c5.03,5.075,9.019,12.96,12.082,19.416
				c0.654,1.377,1.264,2.802,1.453,4.315c0.447,3.579-3.096,8.295-9.561,11.21v24.513c8.228-2.638,17.737-9.841,24.184-15.594
				s10.967-14.197,10.24-22.808c-0.419-4.968-2.507-9.628-4.714-14.099c-4.12-8.342-8.352-16.458-14.649-23.307l-12.175,9.898
				L305.462,314.63z"/>
		</g>
	</g>
</g>
</svg>
