<svg id="visual" viewBox="0 0 900 600" width="900" height="600" xmlns="http://www.w3.org/2000/svg" xmlns:xlink="http://www.w3.org/1999/xlink" version="1.1"><rect x="0" y="0" width="900" height="600" fill="#031726"></rect><defs><linearGradient id="grad1_0" x1="33.3%" y1="0%" x2="100%" y2="100%"><stop offset="20%" stop-color="#031726" stop-opacity="1"></stop><stop offset="80%" stop-color="#031726" stop-opacity="1"></stop></linearGradient></defs><defs><linearGradient id="grad2_0" x1="0%" y1="0%" x2="66.7%" y2="100%"><stop offset="20%" stop-color="#031726" stop-opacity="1"></stop><stop offset="80%" stop-color="#031726" stop-opacity="1"></stop></linearGradient></defs><g transform="translate(900, 0)"><path d="M0 297.5C-55.8 291.9 -111.6 286.3 -148.7 257.6C-185.9 229 -204.4 177.3 -226 130.5C-247.7 83.7 -272.6 41.9 -297.5 0L0 0Z" fill="#4e2bb7"></path></g><g transform="translate(0, 600)"><path d="M0 -297.5C36.3 -262.9 72.5 -228.3 120 -207.8C167.5 -187.4 226.2 -181 257.6 -148.7C289.1 -116.4 293.3 -58.2 297.5 0L0 0Z" fill="#4e2bb7"></path></g></svg>