<svg id="visual" viewBox="0 0 900 600" width="900" height="600" xmlns="http://www.w3.org/2000/svg" xmlns:xlink="http://www.w3.org/1999/xlink" version="1.1"><rect x="0" y="0" width="900" height="600" fill="#fff"></rect><path d="M0 478L37.5 485.7C75 493.3 150 508.7 225 517.2C300 525.7 375 527.3 450 503C525 478.7 600 428.3 675 415.7C750 403 825 428 862.5 440.5L900 453L900 601L862.5 601C825 601 750 601 675 601C600 601 525 601 450 601C375 601 300 601 225 601C150 601 75 601 37.5 601L0 601Z" fill="#4e2bb7" stroke-linecap="round" stroke-linejoin="miter"></path></svg>